<?xml version="1.0" encoding="UTF-8" standalone="no"?><!DOCTYPE svg PUBLIC "-//W3C//DTD SVG 1.1//EN" "http://www.w3.org/Graphics/SVG/1.1/DTD/svg11.dtd"><svg width="100%" height="100%" viewBox="0 0 960 256" version="1.1" xmlns="http://www.w3.org/2000/svg" xmlns:xlink="http://www.w3.org/1999/xlink" xml:space="preserve" xmlns:serif="http://www.serif.com/" style="fill-rule:evenodd;clip-rule:evenodd;stroke-linecap:round;stroke-miterlimit:2;"><path d="M232.564,88.396l-181.128,0c0,0 -39.436,0 -39.436,39.604c-0,39.604 39.436,39.604 39.436,39.604l181.128,-0c-0,-0 39.436,-0 39.436,-39.604c-0,-39.604 -39.436,-39.604 -39.436,-39.604Z" style="fill:none;stroke:#787878;stroke-width:12.5px;stroke-dasharray:47.74,30.59,0,0;stroke-dashoffset:125;"/><path d="M187.826,106.598l-91.652,0c0,0 -20.331,0 -20.331,21.402c-0,21.402 20.331,21.402 20.331,21.402l91.652,-0c-0,-0 20.331,-0 20.331,-21.402c0,-21.402 -20.331,-21.402 -20.331,-21.402Z" style="fill:#787878;"/><text x="354.233px" y="169.348px" style="font-family:'NanumGothicExtraBold', 'Nanum Gothic', sans-serif;font-weight:700;font-size:138.955px;">Conveyer</text></svg>